<svg width="5000" height="5000" viewBox="0 0 5000 5000" fill="none" xmlns="http://www.w3.org/2000/svg">
<path d="M2967.34 3623.73C2959.01 3622.31 2929.01 3618.01 2900.68 3614.2C2792.14 3599.57 2665.68 3550.73 2564.7 3484.45C2490.54 3435.77 2375.37 3321.05 2328.15 3248.81C2235.56 3107.18 2194.15 3004.7 2160.49 2833.9C2148.51 2773.07 2146.67 2745.07 2146.71 2623.4C2146.75 2505.58 2148.9 2471.02 2160.13 2408.01C2199.36 2187.76 2263.32 2019.12 2386.9 1810.11C2468.37 1672.32 2562.61 1553.03 2692.66 1423.04C2869.22 1246.57 3043.87 1129.97 3220.88 1070.37C3649.54 926.053 3978.9 1158.32 4112.29 1699.01C4189.08 2010.3 4181.11 2382.21 4090.97 2693.57C3951.99 3173.6 3613.66 3522.43 3202.85 3609.26C3149.05 3620.63 3002 3629.67 2967.34 3623.73Z" fill="url(#paint0_radial_3_32)"/>
<path d="M4280.91 1815.14C4281.54 1837.37 4295.85 1856.01 4314.68 1859.11C4321.83 1860.28 4330.41 1860.58 4333.74 1859.77C4337.07 1858.96 4410.69 1845.64 4497.34 1830.17C4669.53 1799.43 4676.1 1796.75 4676.1 1757.24C4676.1 1733.13 4658.31 1715.22 4635.21 1716.06C4626.04 1716.4 4547.85 1729.03 4461.46 1744.14C4289.62 1774.19 4279.87 1778.03 4280.91 1815.14Z" fill="#87D7F8"/>
<path d="M4095.85 1242.82C4086.21 1260.27 4091.22 1284 4107.44 1297.83C4114.33 1303.7 4126.39 1308.51 4134.24 1308.51C4150.88 1308.51 4409.3 1116.32 4424.9 1092.34C4444.23 1062.64 4413.34 1020.77 4378.77 1029.8C4358.46 1035.11 4105.29 1225.73 4095.85 1242.82Z" fill="#87D7F8"/>
<path d="M2450.56 973.086C2471.1 1002.91 2658.22 1222.05 2665.75 1225.1C2702.13 1239.84 2739.93 1205.12 2726.47 1169.32C2723.97 1162.69 2673.26 1099.31 2613.76 1028.48C2512.12 907.463 2504.35 899.699 2485 899.699C2445.95 899.699 2427.33 939.362 2450.56 973.086Z" fill="#87D7F8"/>
<path d="M3128.3 930.845C3130.44 934.32 3138.04 939.602 3145.2 942.582C3163.48 950.197 3186.53 944.243 3199.74 928.493C3208.46 918.085 3210.16 909.201 3207.37 888.68C3200.11 835.346 3141.36 585.035 3132.9 571.405C3120.4 551.275 3079.49 554.422 3062.98 576.783C3051.38 592.495 3051.39 592.614 3087.9 758.516C3107.99 849.821 3126.17 927.369 3128.3 930.845Z" fill="#87D7F8"/>
<path d="M3715.87 747.649C3660.77 912.461 3658.81 925.475 3686.56 941.732C3706.08 953.166 3729.16 949.516 3742.1 932.95C3756.3 914.777 3852.02 629.826 3852.02 605.737C3852.02 587.779 3827.63 564.111 3809.12 564.111C3781.47 564.111 3769.07 588.517 3715.87 747.649Z" fill="#87D7F8"/>
<path d="M1706.98 3580.59C1583.7 3564.68 1485.95 3537.17 1394.91 3492.76C827.613 3216.02 561.713 2436.13 765.13 1645.59C801.343 1504.85 865.758 1348.93 928.988 1248.95C995.352 1144.01 1089.81 1045.74 1172.98 995.117C1514.17 787.423 1957.22 983.646 2349 1515.96C2379.87 1557.91 2406.46 1595.6 2408.1 1599.72C2409.73 1603.84 2396.3 1628.56 2378.26 1654.64C2327.99 1727.31 2275.92 1816.43 2230.98 1906.74C1975.77 2419.58 1996.68 2966.27 2285.98 3344.4C2329.43 3401.19 2331.1 3393.39 2266.06 3437.22C2177.74 3496.76 2061.71 3544.23 1949.97 3566.53C1893.45 3577.81 1749.85 3586.12 1706.98 3580.59Z" fill="#1C5382"/>
<path d="M2376.54 4438.24C1965.77 4419.45 1521.85 4315.95 1195.77 4162.94C985.65 4064.34 839.323 3965.99 702.677 3831.52C634.089 3764.02 628.278 3756.54 628.334 3735.86C628.38 3718.93 632.316 3710.32 644.361 3700.77C673.887 3677.39 684.537 3682.66 763.795 3759.93C983.99 3974.6 1285.08 4129.78 1694.86 4239.8C1830.33 4276.17 2071.15 4317.87 2249.29 4335.79C2353.51 4346.27 2687.49 4346.38 2779.49 4335.95C3260.8 4281.42 3678.44 4110.4 4019.13 3828.34C4092.15 3767.89 4108.08 3762.37 4134.05 3788.53C4158.7 3813.34 4153.97 3832.47 4113.67 3871.01C3989.53 3989.76 3745.26 4144.57 3541.02 4233.95C3182.26 4390.95 2801.83 4457.69 2376.54 4438.24ZM2188.7 4306.03C2166.86 4300.8 2155.37 4285.34 2155.37 4261.18C2155.37 4225.27 2172.57 4215.47 2244.49 4210.37C2394.89 4199.71 2590.22 4172.47 2753.09 4139.46C3396.25 4009.08 3899.01 3761 4192.97 3428.97C4253 3361.16 4335.18 3240.56 4370.7 3168.12C4388.75 3131.31 4397.68 3119.63 4411.51 3114.78C4434.04 3106.87 4457.82 3117.43 4468.63 3140.13C4479.38 3162.72 4469.91 3187.87 4414.76 3283.06C4230.5 3601.13 3876.84 3868.96 3396.15 4054.47C3093.87 4171.13 2716.09 4258.39 2355.33 4294.89C2228.36 4307.73 2202.89 4309.43 2188.7 4306.03ZM1922.25 4108.98C1642.76 4088.33 1370.8 4013.03 1097.58 3880.66C840.483 3756.09 584.476 3577.5 383.386 3382.44C327.829 3328.54 323 3322.02 323 3300.8C323 3273.41 341.425 3254.92 368.712 3254.92C382.796 3254.92 399.094 3267 448.329 3313.93C730.856 3583.24 1078.46 3796.63 1419.27 3909.98C1663.21 3991.11 1870.77 4022.59 2118.06 4015.96C2246.54 4012.52 2365.25 4000.72 2461.37 3981.85L2515.91 3971.15L2361.39 3967.24C2099.77 3960.62 1872.19 3928.64 1610.02 3861.66C892.597 3678.36 447.476 3343.18 398.433 2949.33C388.09 2866.27 389.76 2841.79 406.951 2824.48C425.237 2806.06 454.006 2804.74 470.696 2821.55C485.036 2835.99 487.276 2845.83 491.555 2913.23C496.157 2985.71 508.278 3027.12 549.662 3111.76C622.161 3260.03 744.841 3378.99 955.986 3505.76C1353.83 3744.62 2046.11 3902.12 2566.69 3872.22C2752.79 3861.53 2871.38 3844.62 3052.17 3802.99C3234.99 3760.89 3382.62 3707.01 3576.31 3611.7C3915.72 3444.68 4114.78 3272.92 4198.4 3074.92C4220.55 3022.46 4232.81 2968.13 4238.93 2895.28C4243.54 2840.37 4246.13 2830.15 4257.87 2820.58C4274.08 2807.36 4299.04 2806.53 4314.97 2818.67C4330.62 2830.6 4334.7 2862.12 4329.55 2931.32C4316.69 3104.26 4219.53 3277.21 4055.37 3419.31C3869.03 3580.62 3574.03 3739.62 3279.4 3837.55C3216.08 3858.59 3104.28 3896.96 3030.96 3922.82C2743.41 4024.22 2504.44 4081.38 2279.59 4102.56C2180.36 4111.9 2004.53 4115.06 1922.25 4108.98Z" fill="#986C45"/>
<defs>
<radialGradient id="paint0_radial_3_32" cx="0" cy="0" r="1" gradientUnits="userSpaceOnUse" gradientTransform="translate(3088.48 2585.59) rotate(86.3015) scale(1042.19 809.77)">
<stop stop-color="white"/>
<stop offset="1" stop-color="#87D7F8"/>
</radialGradient>
</defs>
</svg>
